<svg id="Layer_1" data-name="Layer 1" xmlns="http://www.w3.org/2000/svg" xmlns:xlink="http://www.w3.org/1999/xlink" viewBox="0 0 850 500"><defs><style>.cls-1{fill:#fff;}.cls-2,.cls-3{fill:#05549a;}.cls-3{font-size:57.88px;}.cls-3,.cls-8{font-family:MYuenHK-SemiBold-B5pc-H, MYuenHK;}.cls-4,.cls-7{font-family:Dosis-Regular, Dosis;}.cls-5{font-size:56.19px;fill:#328baf;font-family:Dosis-Medium, Dosis;font-weight:500;letter-spacing:0em;}.cls-6{letter-spacing:0.01em;}.cls-7,.cls-8{font-weight:400;}.cls-7{letter-spacing:0.01em;}.cls-8{font-size:49.38px;letter-spacing:0.01em;}</style></defs><title>TrueJesusChurchLondonLogo</title><rect class="cls-1" y="107.75" width="850" height="284.5" rx="19"/><path class="cls-2" d="M693.6,185.16c1.33,3.83-.06,6-3.09,7.7-13.9,8-31.93,2-36.28-12.16-5.15-16.74,9.39-32.28,27.28-29.12a33.32,33.32,0,0,1,7.85,2.48c3.52,1.58,5,3.9,3.77,7.69-13.15-9.06-24.13-9-31.75.1a18.52,18.52,0,0,0,1.53,25.61C671.33,195.63,682.3,194.87,693.6,185.16Z"/><path class="cls-2" d="M807.62,168.55a61.28,61.28,0,0,1,5.86-2c7.36-1.56,13.54,3.14,13.82,10.63.19,5,0,10,0,15,0,1.35.13,2.77-1.91,2.65-1.8-.11-1.53-1.46-1.54-2.61,0-5,.1-10-.08-15-.2-5.52-2.6-7.49-8.42-7.35-5.23.13-7.42,2.23-7.52,7.46-.09,5,0,10,0,15,0,1.35.12,2.7-1.87,2.72s-2-1.19-2-2.62q.1-20.49.18-41c0-1.17-.15-2.48,1.65-2.5,2.09,0,1.79,1.49,1.79,2.76C807.63,157.23,807.62,162.73,807.62,168.55Z"/><path class="cls-2" d="M495,181.75c-3.14,0-6.3.13-9.44,0-2.77-.15-3.05,1.16-2.5,3.36,1.89,7.49,12.11,10.4,18.2,5.15a10.17,10.17,0,0,0,1.87-2c.79-1.19,1.65-1.66,2.85-.63s.07,1.91-.46,2.65c-4.25,5.89-14.11,7.34-20.18,3-5.24-3.74-7.26-11.15-4.8-17.66,2.31-6.11,8.22-9.51,15.13-8.69,6.36.76,10.75,5.28,11.91,11.78.46,2.62-.33,3.23-2.74,3.12C501.57,181.64,498.29,181.75,495,181.75Zm-1.34-2.94c2.63,0,5.25-.07,7.87,0,1.94.07,2.18-.76,1.65-2.4a10.44,10.44,0,0,0-9.59-6.9c-4.13.14-8.45,3.37-9.6,7-.58,1.84.07,2.32,1.81,2.27C488.43,178.75,491.05,178.81,493.67,178.81Z"/><path class="cls-2" d="M551.32,167a13.63,13.63,0,0,1,13.85,12c.35,2.36-.29,3-2.58,2.93-6.44-.12-12.89.12-19.32-.1-3.11-.11-3.21,1.33-2.63,3.58,1.86,7.2,11.56,10.21,17.65,5.45a15.56,15.56,0,0,0,2.49-2.51c.8-1,1.67-1.27,2.68-.5,1.37,1,.21,1.88-.37,2.61-3.71,4.63-8.62,6.32-14.37,5.38-5.92-1-9.65-4.65-11.17-10.33C535,175.86,541.63,167,551.32,167Zm-.3,12c2.89,0,5.78,0,8.67,0,2,0,2.16-.7,1.5-2.39a10.93,10.93,0,0,0-9.78-6.77,11.27,11.27,0,0,0-10.21,6.79c-.61,1.65-.43,2.44,1.55,2.38C545.5,179,548.26,179.08,551,179.07Z"/><path class="cls-2" d="M703.68,169.31c2.71-1.46,5-2.41,7.52-2.48,7.69-.18,12.1,3.87,12.27,11.6.11,4.86,0,9.72,0,14.58,0,1,.19,2.18-1.42,2.28s-1.9-.94-1.9-2.25c0-4.86.14-9.73,0-14.58-.25-6.09-2.49-8.24-8.11-8.27s-8,2.2-8.18,7.77c-.17,4.86,0,9.72-.07,14.58,0,1.16.59,2.83-1.62,2.83s-1.66-1.64-1.66-2.82q-.06-20.1,0-40.2c0-1.18-.53-2.91,1.68-2.77s1.48,1.82,1.49,3C703.71,158,703.68,163.33,703.68,169.31Z"/><path class="cls-2" d="M615.51,178.57c0-2.76,0-5.52,0-8.27,0-1.24.29-2,1.73-2,1.28,0,1.94.56,1.89,1.9-.19,5.76.52,11.56-.39,17.29-1,6.05-5.36,9.44-11.69,9.23s-10.62-4-11-10.09c-.34-5.36-.08-10.75-.1-16.13,0-1.15.14-2.11,1.6-2.17,1.7-.07,1.87,1,1.87,2.3,0,5.12-.06,10.24.16,15.35.22,5.36,2.57,7.34,8.09,7.26s7.65-2.21,7.82-7.6C615.56,183.29,615.5,180.93,615.51,178.57Z"/><path class="cls-2" d="M420.6,174.77c0-5.91-.08-11.82,0-17.72.05-2.2-.59-3.05-2.87-3-3.41.16-6.82.06-10.24,0-1.12,0-2.57.27-2.53-1.58s1.56-1.44,2.63-1.45q14.56,0,29.14,0c1.07,0,2.58-.45,2.64,1.44s-1.4,1.58-2.53,1.59c-3.15,0-6.31.17-9.45,0-2.75-.19-3.59.78-3.56,3.54q.21,16.73,0,33.47c0,1.45,1.49,4.24-1.71,4.19-2.84-.05-1.43-2.62-1.48-4C420.5,185.8,420.6,180.28,420.6,174.77Z"/><path class="cls-2" d="M581,166.92a8.53,8.53,0,0,1,6.1,2.26c.7.62,2.07,1.28,1.1,2.46a1.84,1.84,0,0,1-3,.05,5.71,5.71,0,0,0-6.79-1.51,4.47,4.47,0,0,0-3,3.41c-.27,1.84,1.11,2.93,2.56,3.58,2.27,1,4.66,1.72,7,2.62,3.63,1.4,6,3.79,5.75,8-.22,3.68-3,6.62-6.91,7.67-5,1.33-10.54-.35-13-4.11-.63-.94-2.09-2.07-.19-3.25,1.55-1,2.2,0,3.07,1.2,2.81,3.88,7,4.9,10.63,2.74a5.47,5.47,0,0,0,2.93-5.2c-.1-2.14-1.48-3.31-3.25-4-2.06-.84-4.21-1.45-6.27-2.28-4.52-1.84-6.25-4.35-5.55-7.89C572.74,169.29,576.28,166.93,581,166.92Z"/><path class="cls-2" d="M633.74,166.92a8.15,8.15,0,0,1,5.91,2c.78.66,2.42,1.33,1.46,2.69s-2.07,1-3.29-.19a5.66,5.66,0,0,0-6.52-1.25,4.12,4.12,0,0,0-2.85,3.46,3.53,3.53,0,0,0,2.54,3.6c2.18.88,4.43,1.6,6.64,2.43,3.59,1.34,6.18,3.55,6.08,7.75-.08,3.75-2.9,6.88-7,8-5.09,1.36-10.49-.29-13-4.13-.6-.9-2.19-2-.24-3.23,1.54-.93,2.21,0,3.08,1.2,2.75,3.8,6.65,4.84,10.28,2.93a5.52,5.52,0,0,0,3.31-5.35c-.07-2.38-1.6-3.46-3.55-4.19s-4-1.36-5.9-2.16c-4.52-1.85-6.37-4.46-5.64-7.81S629.12,167,633.74,166.92Z"/><path class="cls-2" d="M733,178.17c0,2.5-.12,5,0,7.49.29,4.84,2.68,7.11,7.49,7.33,5.31.25,7.72-1.59,8.49-6.56.8-5.22.15-10.49.38-15.73,0-1.2-.46-2.87,1.71-2.77,1.84.09,1.48,1.53,1.48,2.63,0,5.12.16,10.25,0,15.36-.23,6.28-4.61,10.22-11.09,10.29-6.91.08-11.34-3.59-11.66-10-.26-5.24-.13-10.5-.14-15.75,0-1.14-.23-2.46,1.6-2.53s1.7,1.22,1.71,2.39c0,2.63,0,5.26,0,7.88Z"/><path class="cls-2" d="M474.27,177.81c0,2.49.1,5,0,7.48-.32,6.5-5.11,10.8-11.73,10.64-6.47-.15-11-4.44-11.13-10.8-.12-5,0-10,0-15,0-1.11-.33-2.48,1.58-2.49s1.59,1.35,1.6,2.47c.07,4.85,0,9.71.17,14.56.25,5.77,2.37,7.62,8.17,7.61,5.52,0,7.83-2.16,8-7.85.16-4.72,0-9.45,0-14.17,0-1.31-.18-2.76,1.89-2.62,1.9.14,1.39,1.59,1.42,2.65C474.32,172.82,474.28,175.32,474.27,177.81Z"/><path class="cls-2" d="M798.14,189c.91,2.21.07,3.4-1.59,4.46-6.42,4.1-15.53,3-20.56-2.61a14.24,14.24,0,0,1-.48-18.45c4.48-5.67,13.92-7.29,20.49-3.63,2,1.14,2.82,2.6,2.08,4.82-9.23-5.15-15.55-4.91-20,.75a11.07,11.07,0,0,0,.39,14.46C783.21,194.27,789.15,194.37,798.14,189Z"/><path class="cls-2" d="M527.15,167.37c0-5.37,0-10.74,0-16.1,0-1.29.16-2.35,1.86-2.32s1.81,1.14,1.78,2.39c-.27,10.86.65,21.74-.53,32.58-.59,5.43-3,9.71-8.35,11.82-1,.38-2.37,1.24-2.88-.55-.4-1.44.52-1.9,1.9-2.27,4.8-1.27,5.93-5.23,6.1-9.45.23-5.36.06-10.73.06-16.1Z"/><path class="cls-2" d="M435.07,181.38c0-3.79-.07-7.58,0-11.37.07-2.68.88-3.25,2.79-1.6,1.06.91,1.2.16,1.66-.12a7.33,7.33,0,0,1,3.65-1.28c.77,0,1.64-.07,1.75,1a1.23,1.23,0,0,1-.95,1.48c-5.82,1.31-5.81,6-6,10.47-.13,3.92.05,7.85-.07,11.77,0,1.2.93,3.35-1.49,3.24-2.24-.11-1.32-2.19-1.36-3.43C435,188.18,435.07,184.78,435.07,181.38Z"/><path class="cls-2" d="M760,181.6c0-3.79-.06-7.58,0-11.37.05-2.9.56-3.27,2.89-1.71,1.64,1.09,1.7-.87,2.75-1,1.44-.11,3.26-1.56,4.06.33s-1.43,1.65-2.48,2.13c-3.6,1.6-4.1,4.91-4.25,8.18-.2,4.7,0,9.41-.08,14.12,0,1,.58,2.65-1.29,2.72-2.11.08-1.58-1.67-1.6-2.86C760,188.66,760,185.13,760,181.6Z"/><text class="cls-3" transform="translate(405 265.45)">真耶穌教會<tspan class="cls-4" x="289.38" y="0"> </tspan></text><text class="cls-5" transform="translate(405 337.74)">L<tspan class="cls-6" x="26.13" y="0">ondon</tspan><tspan class="cls-7" x="166.54" y="0"> </tspan><tspan class="cls-8" x="178.28" y="0">倫敦</tspan></text><image width="800" height="800" transform="translate(18 65.5) scale(0.46)" xlink:href="../../../../../Dropbox/Church/Design/AV%20Designs/Logos/tjcbirdlogoTransparent.png"/></svg>